<svg width="16" height="16" viewBox="0 0 16 16" fill="none" xmlns="http://www.w3.org/2000/svg">
<path d="M8.95312 8.00161L10.5175 9.34538L12.267 10.8483V8.00161V5.23828L10.6101 6.62078L8.95312 8.00161Z" fill="#FCFCFC"/>
<path d="M0.75 10.582V12.9987C0.75 13.5512 1.19489 13.9987 1.74417 13.9987H4.14675V12.1637V10.582H2.44838H0.75Z" fill="#FCFCFC"/>
<path d="M4.14675 2L0.75 5.41668H2.44838H4.14675V3.83072V2Z" fill="#FCFCFC"/>
<path d="M4.14675 5.41797H0.75V10.5846H4.14675V5.41797Z" fill="#FCFCFC"/>
<path d="M14.4342 3.44637L12.2636 5.23637V10.8464L14.4442 12.6447C14.7706 12.9014 15.2478 12.6672 15.2478 12.2497V3.83302C15.2478 3.41052 14.7598 3.17887 14.4342 3.44637ZM8.94971 7.99969V10.583H4.14453V13.9997H11.2694C11.8187 13.9997 12.2636 13.5522 12.2636 12.9997V10.8464L8.94971 7.99969Z" fill="#FCFCFC"/>
<path d="M11.2694 2H4.14453V5.41668H8.94971V8L12.2636 5.23833V3C12.2636 2.4475 11.8187 2 11.2694 2Z" fill="#FCFCFC"/>
</svg>
